<?xml version="1.0" encoding="UTF-8"?>
<svg version="1.1" xmlns="http://www.w3.org/2000/svg" width="500" height="500">
<path d="M0 0 C0.79921875 0.60714844 1.5984375 1.21429688 2.421875 1.83984375 C16.72451573 12.89400889 29.78530566 25.85733127 41 40 C41.79535156 40.99 42.59070313 41.98 43.41015625 43 C68.81352351 75.20712172 85.39359097 112.71993667 93 153 C93.16371094 153.82000488 93.32742188 154.64000977 93.49609375 155.48486328 C98.7530308 182.80681606 98.5532913 214.7527981 93 242 C92.6561632 243.85545267 92.3124171 245.71092214 91.96875 247.56640625 C82.38476682 296.97938829 57.36235696 339.75460557 23 376 C21.93265625 377.13115234 21.93265625 377.13115234 20.84375 378.28515625 C15.61672524 383.67284776 9.88324302 388.349215 4 393 C2.51693359 394.19109375 2.51693359 394.19109375 1.00390625 395.40625 C-29.69206766 419.62579496 -65.49250131 435.99409719 -103.75 443.8125 C-105.16539062 444.10471436 -105.16539062 444.10471436 -106.609375 444.40283203 C-122.57930541 447.4812748 -138.6418428 448.41479045 -154.875 448.375 C-155.76019318 448.37412384 -156.64538635 448.37324768 -157.55740356 448.37234497 C-205.83587676 448.21603744 -252.88751201 434.07136016 -293 407 C-293.60247559 406.59426758 -294.20495117 406.18853516 -294.82568359 405.77050781 C-303.70112604 399.7354941 -311.94433272 393.08315745 -320 386 C-321.34578125 384.82244141 -321.34578125 384.82244141 -322.71875 383.62109375 C-332.01109336 375.37557302 -340.27772432 366.73235732 -348 357 C-348.86204125 355.95080288 -349.72536164 354.90265565 -350.58984375 353.85546875 C-375.82728953 322.97262439 -392.35534852 285.5017519 -400.3125 246.5625 C-400.45977539 245.84384766 -400.60705078 245.12519531 -400.75878906 244.38476562 C-403.64238496 229.21718628 -404.40950441 214.15563736 -404.375 198.75 C-404.37412384 197.78878235 -404.37324768 196.8275647 -404.37234497 195.83721924 C-404.25836302 157.7372725 -396.16462427 121.12234613 -379 87 C-378.6194043 86.24154785 -378.23880859 85.4830957 -377.84667969 84.70166016 C-365.63630044 60.54760971 -349.5929783 39.61186285 -331 20 C-329.93265625 18.86884766 -329.93265625 18.86884766 -328.84375 17.71484375 C-323.61672524 12.32715224 -317.88324302 7.650785 -312 3 C-311.01128906 2.2059375 -310.02257812 1.411875 -309.00390625 0.59375 C-280.6409925 -21.78497845 -247.94486908 -37.11417051 -213 -46 C-211.80761719 -46.30550781 -210.61523438 -46.61101563 -209.38671875 -46.92578125 C-205.93702884 -47.73139746 -202.4890844 -48.38685546 -199 -49 C-197.95102539 -49.20302734 -197.95102539 -49.20302734 -196.88085938 -49.41015625 C-128.376658 -62.30916618 -54.40557696 -42.92176506 0 0 Z " fill="#EBAE00" transform="translate(404,52)"/>
<path d="M0 0 C0.33 0.66 0.66 1.32 1 2 C2.42486977 2.0154612 2.42486977 2.0154612 3.87852478 2.03123474 C12.81097864 2.12880095 21.74336022 2.23151866 30.67569637 2.33933926 C35.26839178 2.39460965 39.8610935 2.44803609 44.45385742 2.49731445 C48.88239331 2.54489747 53.31084929 2.59723781 57.73929024 2.65294075 C59.43263331 2.67339187 61.12599831 2.6921003 62.81937981 2.70907402 C65.18297163 2.73305728 67.54641104 2.76311966 69.90991211 2.79467773 C70.61697296 2.8004332 71.32403381 2.80618866 72.05252075 2.81211853 C76.88594784 2.88594784 76.88594784 2.88594784 78 4 C78.07226502 5.85287502 78.0838122 7.70833878 78.0625 9.5625 C78.05347656 10.57441406 78.04445313 11.58632812 78.03515625 12.62890625 C78.02355469 13.41136719 78.01195312 14.19382813 78 15 C78.80230639 14.99539104 79.60461279 14.99078207 80.4312315 14.98603344 C99.9968822 14.87537822 119.56247004 14.79275809 139.12836742 14.74093914 C148.59049439 14.71521066 158.05241185 14.68016315 167.5144043 14.62280273 C175.76615192 14.5728031 184.01774774 14.5406701 192.26964265 14.52955753 C196.63480422 14.52306665 200.99953168 14.50792452 205.36455345 14.47134972 C209.48258618 14.43712767 213.60001064 14.42699915 217.71817207 14.43446159 C219.22048638 14.43309864 220.72282343 14.42332304 222.22501373 14.40397263 C233.72710816 14.26321698 244.24678844 15.84834917 253.4375 23.3125 C261.30947397 31.0187482 267.09600711 39.83597681 267.375 51.1875 C266.85927232 61.75159923 263.02702433 72.07719809 255.16796875 79.3984375 C247.13360057 85.33373651 239.16793204 88.15572914 229.3059082 88.11352539 C228.4178952 88.11367142 227.5298822 88.11381744 226.61495972 88.1139679 C223.67687546 88.11327068 220.73885444 88.10548718 217.80078125 88.09765625 C215.76482681 88.09579139 213.72887192 88.09436781 211.69291687 88.09336853 C206.33188643 88.08954869 200.97088303 88.07972292 195.60986328 88.06866455 C190.1403032 88.05843899 184.67073876 88.05386845 179.20117188 88.04882812 C168.46743603 88.03810021 157.73372026 88.02103015 147 88 C147.00368717 88.70953921 147.00737434 89.41907843 147.01117325 90.15011883 C147.09974138 107.46258679 147.16581477 124.77499675 147.20724869 142.08764172 C147.22782149 150.46012222 147.25584025 158.83245094 147.30175781 167.20483398 C147.34178823 174.50730238 147.36747115 181.80966077 147.37635398 189.11223584 C147.3815415 192.97432256 147.39362186 196.83609475 147.42292023 200.69808006 C147.45034653 204.34330159 147.45839104 207.98808314 147.45243073 211.63339806 C147.45403249 213.58830801 147.47541139 215.54317155 147.49768066 217.49795532 C147.43697123 230.70108949 144.40787184 241.38852914 135.15234375 250.8984375 C129.16600474 256.53963967 122.30182778 260.32229977 114 261 C112.90945312 261.09474609 112.90945312 261.09474609 111.796875 261.19140625 C102.41159304 261.64886496 94.09261291 258.64013889 86.84375 252.68359375 C80.04723486 246.47745386 76.65712605 240.84280121 74 232 C73.67 231.01 73.34 230.02 73 229 C72.9096866 227.26183689 72.87804078 225.52036845 72.87974548 223.77986145 C72.87768349 222.15815788 72.87768349 222.15815788 72.87557983 220.50369263 C72.88097275 218.72452957 72.88097275 218.72452957 72.88647461 216.90942383 C72.88632858 215.66052872 72.88618256 214.41163361 72.8860321 213.12489319 C72.88660987 209.69953667 72.89162915 206.27424024 72.89860606 202.84889436 C72.90485244 199.26943784 72.90544442 195.68998054 72.90663147 192.11051941 C72.90974099 185.33199544 72.91794928 178.55348758 72.92798096 171.77497071 C72.93915385 164.05800062 72.94465552 156.34102976 72.94967639 148.6240536 C72.9601322 132.74935815 72.97847298 116.87468488 73 101 C62.77 101 52.54 101 42 101 C41.505 102.485 41.505 102.485 41 104 C38.25 104.75 38.25 104.75 35 105 C32.625 103.375 32.625 103.375 31 101 C30.50368643 98.09302053 30.56676851 96.69798407 32.125 94.1875 C34.77535957 92.50893894 36.93246424 92.79549762 40 93 C40.66 94.32 41.32 95.64 42 97 C43.05501709 96.99476318 44.11003418 96.98952637 45.19702148 96.98413086 C49.0975663 96.96608099 52.9981074 96.95456805 56.89868164 96.94506836 C58.58944316 96.9400281 60.28020029 96.93319595 61.97094727 96.92456055 C64.39600707 96.91248143 66.82100944 96.90676877 69.24609375 96.90234375 C70.38672523 96.89460182 70.38672523 96.89460182 71.55039978 96.88670349 C73.3673257 96.88650762 75.18413127 96.93802723 77 97 C78 98 78 98 78.12190533 100.19787312 C78.12056497 101.17690192 78.11922461 102.15593073 78.11784363 103.16462708 C78.11952042 104.84454239 78.11952042 104.84454239 78.12123108 106.55839539 C78.11756027 107.79829727 78.11388947 109.03819916 78.11010742 110.31567383 C78.1105094 112.30773241 78.11092124 114.29979102 78.11170161 116.29184949 C78.11186624 118.4413688 78.10983727 120.59087852 78.10753441 122.7403965 C78.10390618 127.22586574 78.11303447 131.71125037 78.12532043 136.19670105 C78.12734236 136.95376604 78.12936429 137.71083104 78.13144749 138.4908374 C78.1356167 140.03962271 78.13981946 141.58840794 78.14405501 143.13719308 C78.17217786 153.58198949 78.19239858 164.02660544 78.17504883 174.47143555 C78.16344961 181.51182544 78.17321077 188.55183707 78.20710641 195.59215945 C78.22418879 199.31511789 78.23066257 203.03739449 78.210989 206.760355 C78.18917051 210.92774402 78.21436465 215.09363755 78.24291992 219.26098633 C78.22223198 221.08743935 78.22223198 221.08743935 78.2011261 222.95079041 C78.32366445 232.21918269 80.55945012 240.51245542 87.24435711 247.26810932 C94.15922655 253.09169305 102.63989613 256.35425528 111.71875 256.21875 C121.2789192 255.30202145 128.60431334 251.06891684 135 244 C139.17022368 238.2808361 141.24402423 233.89688523 141.27174377 226.7868042 C141.28632126 224.91071976 141.28632126 224.91071976 141.30119324 222.99673462 C141.30196336 221.6185914 141.3025524 220.24044806 141.30297852 218.86230469 C141.31064306 217.40507538 141.31919007 215.94785049 141.32855225 214.4906311 C141.34680419 211.35805529 141.35885956 208.22553886 141.36609077 205.0929184 C141.37758253 200.1438499 141.40303883 195.1949132 141.43040466 190.24591064 C141.47202282 182.42390276 141.50445617 174.60188857 141.53287882 166.77982259 C141.58391358 152.75570373 141.64589171 138.73163923 141.71821922 124.70761418 C141.74319141 119.78299127 141.76259964 114.85838601 141.77760136 109.93372297 C141.7877723 106.87881725 141.80191726 103.82393904 141.81707764 100.76905441 C141.82325641 99.34720123 141.82770261 97.92533936 141.83033562 96.50347519 C141.83412074 94.57072308 141.8444827 92.63798711 141.85523987 90.70526123 C141.85909478 89.62127422 141.8629497 88.53728722 141.86692142 87.42045212 C142 85 142 85 143 84 C145.85833782 83.90131366 148.69321082 83.86701511 151.55200195 83.87402344 C152.4497081 83.8721553 153.34741425 83.87028717 154.27232361 83.86836243 C156.23066736 83.86434682 158.18901583 83.86228253 160.14736366 83.86190033 C164.32041306 83.85849088 168.49330583 83.83712545 172.66630077 83.81666946 C180.44039491 83.77866106 188.21432785 83.74737372 195.98852539 83.74951172 C201.39102222 83.75030258 206.79295389 83.72676631 212.19530296 83.6876297 C214.24797202 83.67721611 216.30070669 83.67561118 218.35338783 83.68328094 C231.6290421 83.72789389 242.99965042 83.51037028 253.5 74.3125 C257.3796987 70.06983573 259.29293665 65.42981167 261 60 C261.33 59.01 261.66 58.02 262 57 C263.0538561 46.61692593 260.35470141 37.96205176 253.828125 29.8203125 C243.80594376 19.84096109 231.66781105 19.70083473 218.42016602 19.69702148 C216.84426949 19.68935153 215.26837704 19.6808035 213.69248962 19.67144775 C210.31278099 19.65323742 206.93312692 19.64115574 203.55337715 19.63390923 C198.21341614 19.62239173 192.87357631 19.59692558 187.53367615 19.56959534 C179.09552867 19.52802858 170.65737533 19.49556936 162.21917433 19.46712118 C147.08407026 19.41602284 131.94901607 19.35409823 116.81399864 19.28178078 C111.50049903 19.25681628 106.18701575 19.23740517 100.87347901 19.22239864 C97.5793015 19.21222933 94.28514953 19.19808492 90.99099159 19.18292236 C89.45786894 19.17674309 87.92473822 19.17229718 86.39160538 19.16966438 C84.30790252 19.16587997 82.22431365 19.15609075 80.14064026 19.14476013 C78.97205758 19.14090522 77.8034749 19.1370503 76.59948063 19.13307858 C74 19 74 19 73 18 C73 14.37 73 10.74 73 7 C49.24 7 25.48 7 1 7 C0.67 7.99 0.34 8.98 0 10 C-6.40096618 11.32850242 -6.40096618 11.32850242 -8.9375 9.9375 C-10.47555213 7.13281671 -10.39310741 5.14485925 -10 2 C-7.65446208 -2.27715738 -4.20919664 -1.01332512 0 0 Z " fill="#181200" transform="translate(140,132)"/>
<path d="M0 0 C1.9375 1.0625 1.9375 1.0625 3 3 C2.8125 6.625 2.8125 6.625 2 10 C1.01 10.495 1.01 10.495 0 11 C-0.33 24.2 -0.66 37.4 -1 51 C5.19825562 50.9685791 5.19825562 50.9685791 11.52172852 50.93652344 C25.21206904 50.87008678 38.9024073 50.82579373 52.59286594 50.79275131 C60.88906174 50.77219268 69.18510399 50.74420153 77.48120117 50.69824219 C84.71849919 50.65816783 91.95568591 50.6325186 99.19309181 50.62364602 C103.01947348 50.61846582 106.84553696 50.60643344 110.67181587 50.57707977 C114.28585508 50.54958344 117.89945025 50.54162256 121.51358414 50.54756927 C123.44663971 50.54597333 125.37964884 50.52463199 127.31257629 50.50231934 C142.07118799 50.57050402 155.36797435 54.1066897 166.46484375 64.25390625 C176.62282227 74.78372425 180.77033447 86.47640213 181.375 100.875 C181.0985869 114.2119321 175.31428854 125.63739966 166.375 135.25 C154.04619467 147.02428635 139.13642401 149.48317171 122.70703125 149.29296875 C121.26544135 149.28735918 119.82384564 149.28309553 118.38224792 149.28010559 C114.62571853 149.26876366 110.86954857 149.23939136 107.11315918 149.20599365 C103.26494201 149.17506009 99.41666559 149.161551 95.56835938 149.14648438 C88.04539168 149.11450875 80.52279241 149.06183117 73 149 C73 154.28 73 159.56 73 165 C74.98 165.99 74.98 165.99 77 167 C77.25 169.8125 77.25 169.8125 77 173 C75.375 174.9375 75.375 174.9375 73 176 C69.875 175.875 69.875 175.875 67 175 C65 172 65 172 65.3125 169.4375 C66 167 66 167 67 165 C67.66 165 68.32 165 69 165 C68.99476318 164.42967041 68.98952637 163.85934082 68.98413086 163.27172852 C68.96341779 160.70199677 68.9503581 158.13228253 68.9375 155.5625 C68.92912109 154.66466797 68.92074219 153.76683594 68.91210938 152.84179688 C68.90888672 151.98779297 68.90566406 151.13378906 68.90234375 150.25390625 C68.89710693 149.46314697 68.89187012 148.6723877 68.88647461 147.85766602 C69 146 69 146 70 145 C72.037322 144.90241891 74.07801837 144.87483761 76.11767578 144.87402344 C77.43059601 144.87021667 78.74351624 144.86640991 80.09622192 144.86248779 C81.15767614 144.862197 81.15767614 144.862197 82.24057388 144.86190033 C85.22629574 144.85848045 88.21180078 144.83709125 91.19744682 144.81666946 C96.75519147 144.77876966 102.31271692 144.74735972 107.87060547 144.74951172 C111.73653235 144.75030838 115.60168064 144.72652041 119.46740341 144.6876297 C120.92866368 144.67729637 122.3900153 144.67555024 123.85129166 144.68328094 C136.83143163 144.74498607 148.23216276 142.66463563 159 135 C159.94359375 134.33097656 159.94359375 134.33097656 160.90625 133.6484375 C169.04972509 127.14164123 173.92891294 117.11925872 176 107 C177.05222421 93.76957434 174.77885689 81.30391444 166 71 C157.89110437 62.4241814 147.94490511 56.57566286 135.99072456 55.80633354 C132.31960539 55.72140239 128.6528251 55.69867695 124.98071289 55.69702148 C123.57230141 55.68934952 122.16389448 55.68080112 120.75549316 55.67144775 C117.73755974 55.65325259 114.71968723 55.64116137 111.70170784 55.63390923 C106.9330237 55.62238192 102.16447486 55.59691205 97.39585876 55.56959534 C89.86082078 55.52804716 82.32577624 55.4955788 74.79067844 55.46712118 C61.27388091 55.41600107 47.75713906 55.35408844 34.2404384 55.28178078 C29.49561609 55.25682172 24.75081204 55.23740836 20.00594819 55.22239864 C17.06467097 55.21222845 14.12342235 55.19808418 11.18216705 55.18292236 C9.81352597 55.17674397 8.44487587 55.17229756 7.07622337 55.16966438 C5.21588575 55.16587907 3.35556489 55.155517 1.49525452 55.14476013 C-0.06957373 55.13897776 -0.06957373 55.13897776 -1.66601467 55.13307858 C-4 55 -4 55 -5 54 C-5.09268999 52.64905018 -5.11747326 51.29332909 -5.11352539 49.93920898 C-5.11341209 48.64798378 -5.11341209 48.64798378 -5.11329651 47.33067322 C-5.10813522 46.39526199 -5.10297394 45.45985077 -5.09765625 44.49609375 C-5.09553383 43.06657127 -5.09553383 43.06657127 -5.09336853 41.60816956 C-5.08775152 38.55124835 -5.07519616 35.49439923 -5.0625 32.4375 C-5.05748719 30.37044376 -5.05292391 28.30338638 -5.04882812 26.23632812 C-5.03777656 21.15752412 -5.02050055 16.0787743 -5 11 C-5.99 10.67 -6.98 10.34 -8 10 C-9.32850242 3.59903382 -9.32850242 3.59903382 -7.9375 1.0625 C-5.13281671 -0.47555213 -3.14485925 -0.39310741 0 0 Z " fill="#080500" transform="translate(238,84)"/>
<path d="M0 0 C3.64734979 0.22330713 5.38372835 0.38372835 8 3 C8.33015665 6.10347254 8.50531294 8.15781176 6.875 10.875 C4.21965017 12.4682099 2.03210482 12.20214032 -1 12 C-1.99 10.02 -1.99 10.02 -3 8 C-8.12334972 8.0692448 -13.24591175 8.15738654 -18.36865234 8.26245117 C-20.10847172 8.29554293 -21.84839439 8.32362307 -23.58837891 8.34643555 C-26.10103041 8.38027355 -28.61274866 8.43260026 -31.125 8.48828125 C-31.89303955 8.49467117 -32.6610791 8.5010611 -33.45239258 8.50764465 C-43.14117357 8.76675126 -52.08155919 12.83563715 -58.796875 19.88671875 C-64.69706384 27.32037252 -66.63596649 34.11003971 -66.42578125 43.6015625 C-65.55539737 50.54866318 -63.06126901 57.10199773 -58 62 C-58 62.66 -58 63.32 -58 64 C-57.15115234 64.41572266 -57.15115234 64.41572266 -56.28515625 64.83984375 C-53.17306612 66.41982797 -50.15503979 68.15472444 -47.12109375 69.87890625 C-42.88764851 72.11647307 -39.0757872 72.1684113 -34.4074707 72.20532227 C-33.63650055 72.21522186 -32.8655304 72.22512146 -32.07119751 72.23532104 C-29.52275667 72.26690956 -26.97429718 72.291683 -24.42578125 72.31640625 C-22.6588645 72.33697806 -20.89195264 72.3579746 -19.12504578 72.37937927 C-14.47427333 72.43457645 -9.82345664 72.48399612 -5.17260742 72.53222656 C0.40749197 72.59129035 5.98751049 72.6575054 11.56754303 72.72252655 C20.0449793 72.82050647 28.52246742 72.90938275 37 73 C37 57.16 37 41.32 37 25 C24.22044086 25.03268858 24.22044086 25.03268858 11.44140625 25.11132812 C6.22504314 25.15361336 1.00903014 25.19065237 -4.20751953 25.19555664 C-8.41592182 25.19985247 -12.62353877 25.22842044 -16.83169556 25.27343178 C-18.4327028 25.28636598 -20.03380422 25.29072895 -21.63485718 25.28615379 C-32.72286847 25.09000673 -32.72286847 25.09000673 -42.64355469 29.54048157 C-45.63070562 32.75461914 -46.29302336 35.75816204 -46.3125 40.0625 C-46.32925781 40.91972656 -46.34601563 41.77695313 -46.36328125 42.66015625 C-45.92802113 45.46360585 -45.06253684 46.1517527 -43 48 C-42.57682677 50.82115488 -42.61281566 52.33950907 -44.0625 54.8125 C-47.08503156 56.66501934 -49.54932719 56.37643703 -53 56 C-55.15502531 52.76746204 -55.46856135 51.74849077 -55 48 C-54.50757812 47.56300781 -54.01515625 47.12601563 -53.5078125 46.67578125 C-51.43028653 44.36682104 -51.63456133 42.75222618 -51.5625 39.6875 C-51.07914398 32.75635712 -48.52472671 29.24772013 -43.4375 24.6875 C-39.05974191 20.97274313 -35.16303501 20.85471226 -29.60693359 20.87060547 C-28.85707687 20.86885315 -28.10722015 20.86710083 -27.3346405 20.86529541 C-24.85588264 20.86089363 -22.37719609 20.86380841 -19.8984375 20.8671875 C-18.17876166 20.86651412 -16.45908591 20.86554381 -14.7394104 20.86428833 C-11.13648573 20.86281375 -7.53358585 20.86495878 -3.93066406 20.86962891 C0.69779234 20.87533462 5.32619086 20.87204036 9.95464516 20.86605644 C13.50440918 20.86245169 17.05415937 20.86358887 20.6039238 20.86618423 C22.31124249 20.8668533 24.01856242 20.8660258 25.72587967 20.86370468 C28.10586148 20.86117863 30.48574799 20.86501766 32.86572266 20.87060547 C33.57742111 20.86858124 34.28911957 20.86655701 35.02238464 20.86447144 C39.88573547 20.88573547 39.88573547 20.88573547 41 22 C41.0935919 23.71865409 41.11744611 25.44115744 41.11352539 27.16235352 C41.11341209 28.81395226 41.11341209 28.81395226 41.11329651 30.49891663 C41.10813522 31.6968132 41.10297394 32.89470978 41.09765625 34.12890625 C41.0962413 35.34827377 41.09482635 36.5676413 41.09336853 37.82395935 C41.08774967 41.7368307 41.07519396 45.64964581 41.0625 49.5625 C41.05748743 52.20768147 41.0529241 54.85286383 41.04882812 57.49804688 C41.03777411 63.99871726 41.02101764 70.49935461 41 77 C38.02009719 78.4899514 35.31143691 78.1437975 31.98681641 78.16113281 C31.2645285 78.16609772 30.5422406 78.17106262 29.79806519 78.17617798 C27.39922131 78.19082406 25.00044382 78.19760974 22.6015625 78.203125 C20.92922973 78.20887957 19.25689696 78.21463726 17.58456421 78.22039795 C14.06890557 78.23091837 10.55326983 78.23675253 7.03759766 78.24023438 C2.56141685 78.24568599 -1.91445465 78.26963731 -6.39053917 78.29820633 C-9.85154048 78.31696783 -13.31246978 78.32204569 -16.77351761 78.32357025 C-18.42152196 78.32657285 -20.06952578 78.33451914 -21.71747971 78.34775543 C-36.51804362 78.45803211 -48.76649946 77.28004125 -60.15625 67.06640625 C-67.26067118 59.84269441 -71.18646803 50.97616139 -71.5 40.8125 C-70.93665207 29.81999288 -67.08685821 20.99503061 -59.1875 13.21484375 C-47.6898006 3.84900945 -35.56280173 3.29500773 -21.4375 3.375 C-18.83821048 3.3788533 -16.23960778 3.37543755 -13.64039612 3.35440063 C-12.0355696 3.34234019 -10.43054772 3.34493384 -8.82579041 3.36410522 C-4.67242033 3.4370333 -4.67242033 3.4370333 -1.17993164 1.46728516 C-0.59586548 0.740979 -0.59586548 0.740979 0 0 Z " fill="#110D00" transform="translate(164,143)"/>
<path d="M0 0 C1.9375 1.6875 1.9375 1.6875 3 4 C2.75925978 7.37036311 2.41201979 8.58798021 0 11 C-0.36894582 13.03060659 -0.36894582 13.03060659 -0.4140625 15.3515625 C-0.47207031 16.62773438 -0.47207031 16.62773438 -0.53125 17.9296875 C-0.57765625 19.26386719 -0.57765625 19.26386719 -0.625 20.625 C-0.68300781 21.97078125 -0.68300781 21.97078125 -0.7421875 23.34375 C-0.83659357 25.5622927 -0.92216748 27.78082403 -1 30 C-0.03895434 29.99308655 -0.03895434 29.99308655 0.94150639 29.98603344 C16.59396785 29.87519161 32.24629115 29.79266853 47.89904881 29.74093914 C55.46889481 29.71525264 63.03847744 29.68028737 70.6081543 29.62280273 C77.21260059 29.57267241 83.81685598 29.54063971 90.42148727 29.52955753 C93.91262122 29.52308827 97.40320945 29.50808925 100.89416695 29.47134972 C121.44770029 29.26369312 136.23336921 30.35331892 153 43 C154.0725 43.763125 155.145 44.52625 156.25 45.3125 C168.04593399 56.84034458 175.04232955 72.03738885 175.43139648 88.49633789 C175.47215492 106.05018131 170.60436008 121.31203234 158.25 134.3125 C144.78288985 146.94930712 129.16105115 152.06629526 110.89453125 152.2109375 C108.92251737 152.23898026 106.95051225 152.2676445 104.97851562 152.296875 C101.88419606 152.33828047 98.79004483 152.37518996 95.69555664 152.40136719 C92.69904419 152.42888206 89.70326373 152.47471878 86.70703125 152.5234375 C85.77889114 152.52669037 84.85075104 152.52994324 83.89448547 152.53329468 C83.03316513 152.54986115 82.17184479 152.56642761 81.28442383 152.58349609 C80.14907951 152.59562637 80.14907951 152.59562637 78.99079895 152.60800171 C76.48935812 153.10054794 75.70176732 154.16472076 74 156 C71.14519831 156.42822025 69.65507108 156.40659584 67.1875 154.875 C65.44801218 152.12844028 65.60230872 150.18153026 66 147 C67.1875 145.125 67.1875 145.125 69 144 C71.5 143.625 71.5 143.625 74 144 C74.45604614 144.49472809 74.91209229 144.98945618 75.38195801 145.49917603 C77.47700482 147.44244851 78.56450756 147.37951221 81.38867188 147.38818359 C82.71650696 147.40236832 82.71650696 147.40236832 84.07116699 147.4168396 C85.02736938 147.41076691 85.98357178 147.40469421 86.96875 147.3984375 C87.95943481 147.40130768 88.95011963 147.40417786 89.9708252 147.40713501 C92.0723528 147.40917833 94.1738993 147.4036298 96.27539062 147.39111328 C99.46008128 147.37519947 102.64347631 147.39088231 105.828125 147.41015625 C107.87500276 147.40817121 109.92187973 147.40432216 111.96875 147.3984375 C112.90875854 147.40451019 113.84876709 147.41058289 114.81726074 147.4168396 C124.35591208 147.31776441 133.18378111 145.00140482 141.5625 140.4375 C142.51382813 139.91978027 142.51382813 139.91978027 143.484375 139.39160156 C156.58555112 131.91755332 165.33472621 119.33545661 169.3359375 104.87890625 C172.38500059 87.06879067 170.09891454 71.44745202 159.796875 56.390625 C151.99445273 46.01001103 139.92824813 37.86686939 127.05075073 35.44543457 C121.58301073 34.7151665 116.06926635 34.83039564 110.56298828 34.81054688 C108.70580925 34.79810692 108.70580925 34.79810692 106.81111145 34.78541565 C104.13092025 34.76805769 101.45078344 34.75239984 98.77057266 34.73963928 C94.53547584 34.71933661 90.300446 34.69170041 86.06539917 34.66296387 C76.3200053 34.59793805 66.57456242 34.54225743 56.82910919 34.48697662 C47.87823767 34.43614796 38.9273909 34.38334803 29.97658145 34.32245111 C25.76280868 34.29406349 21.5490442 34.27048371 17.33522344 34.25052643 C14.11033857 34.23404993 10.88549724 34.21123918 7.66064453 34.18945312 C6.48769333 34.18526871 5.31474213 34.18108429 4.10624695 34.17677307 C3.04639084 34.16842941 1.98653473 34.16008575 0.89456177 34.15148926 C-0.03196638 34.14633553 -0.95849453 34.14118179 -1.91309929 34.13587189 C-4 34 -4 34 -5 33 C-5.08700342 31.36527118 -5.10701063 29.72685945 -5.09765625 28.08984375 C-5.09443359 27.10048828 -5.09121094 26.11113281 -5.08789062 25.09179688 C-5.07951172 24.05087891 -5.07113281 23.00996094 -5.0625 21.9375 C-5.05798828 20.89271484 -5.05347656 19.84792969 -5.04882812 18.77148438 C-5.03699913 16.1809334 -5.02051689 13.59049441 -5 11 C-6.32 10.34 -7.64 9.68 -9 9 C-9.36 3.6 -9.36 3.6 -7.875 1.125 C-5.08893958 -0.54663625 -3.18011138 -0.46376624 0 0 Z " fill="#100C00" transform="translate(256,93)"/>
<path d="M0 0 C19.47 0 38.94 0 59 0 C59 8.25 59 16.5 59 25 C57.2817691 26.7182309 55.01402251 26.12754321 52.66992188 26.12939453 C51.53204224 26.13254669 50.3941626 26.13569885 49.22180176 26.13894653 C47.98329468 26.1369223 46.7447876 26.13489807 45.46875 26.1328125 C44.20736206 26.13376923 42.94597412 26.13472595 41.6463623 26.13571167 C38.97302862 26.13639375 36.29978563 26.13503529 33.62646484 26.13037109 C30.19293309 26.12467381 26.7594795 26.12795301 23.32595062 26.13394356 C20.06104757 26.13841762 16.79615407 26.13528883 13.53125 26.1328125 C12.29274292 26.13483673 11.05423584 26.13686096 9.77819824 26.13894653 C8.6403186 26.13579437 7.50243896 26.13264221 6.33007812 26.12939453 C5.32271606 26.12859894 4.315354 26.12780334 3.27746582 26.12698364 C1 26 1 26 0 25 C0 16.75 0 8.5 0 0 Z " fill="#E5AA00" transform="translate(132,180)"/>
<path d="M0 0 C3.5625 0.125 3.5625 0.125 7 1 C9 4 9 4 8.8125 7.0625 C8 10 8 10 5 12 C2.5 12.3125 2.5 12.3125 0 12 C-0.43733113 11.50677844 -0.87466227 11.01355688 -1.32524586 10.50538921 C-3.65712371 8.40933005 -5.19044314 8.61624666 -8.29606628 8.60127258 C-9.94301231 8.58246536 -9.94301231 8.58246536 -11.62322998 8.5632782 C-13.43044525 8.56543083 -13.43044525 8.56543083 -15.27416992 8.56762695 C-16.54257217 8.5574353 -17.81097443 8.54724365 -19.11781311 8.53674316 C-22.59688602 8.50912604 -26.07579549 8.49988236 -29.55496383 8.49388909 C-33.19054268 8.48451759 -36.82599885 8.45831526 -40.46150208 8.43388367 C-47.34624193 8.39018114 -54.23095803 8.36165731 -61.11579448 8.33856028 C-68.95375389 8.31152866 -76.79159012 8.26761595 -84.62946165 8.22227156 C-100.752925 8.1293715 -116.87637533 8.05994405 -133 8 C-133 23.84 -133 39.68 -133 56 C-128.38 56 -123.76 56 -119 56 C-118 57 -118 57 -117.87695217 59.07521915 C-117.87833486 60.45652594 -117.87833486 60.45652594 -117.87974548 61.86573792 C-117.87837082 62.91888184 -117.87699615 63.97202576 -117.87557983 65.05708313 C-117.87917511 66.22233017 -117.88277039 67.38757721 -117.88647461 68.58813477 C-117.88632858 69.80747711 -117.88618256 71.02681946 -117.8860321 72.28311157 C-117.88661107 75.63627511 -117.89164032 78.98937774 -117.89860606 82.34253049 C-117.90484017 85.84325562 -117.90544344 89.34398148 -117.90663147 92.8447113 C-117.90974462 99.47809656 -117.91795778 106.11146541 -117.92798096 112.74484342 C-117.93914261 120.29490207 -117.94465268 127.84496149 -117.94967639 135.39502633 C-117.96014041 150.93002706 -117.97773953 166.46501142 -118 182 C-117.01 182.33 -116.02 182.66 -115 183 C-113.67149758 189.40096618 -113.67149758 189.40096618 -115.0625 191.9375 C-117.89875113 193.49286352 -119.82282567 193.46333792 -123 193 C-124.9375 191.3125 -124.9375 191.3125 -126 189 C-125.75925978 185.62963689 -125.41201979 184.41201979 -123 182 C-122.68581502 179.77643125 -122.68581502 179.77643125 -122.7215271 177.16586304 C-122.71036362 176.14500107 -122.69920013 175.1241391 -122.68769836 174.07234192 C-122.68553818 172.94809311 -122.68337799 171.8238443 -122.68115234 170.66552734 C-122.67110672 169.48505325 -122.6610611 168.30457916 -122.65071106 167.08833313 C-122.62506867 163.84681116 -122.60824421 160.60538499 -122.59528303 157.36379194 C-122.5796784 153.97779798 -122.55287976 150.5918934 -122.5272522 147.20596313 C-122.48041698 140.79223161 -122.44369592 134.37848335 -122.41057932 127.96466792 C-122.37239135 120.66361707 -122.32297255 113.36265589 -122.27259517 106.06168056 C-122.16920483 91.0411866 -122.07996762 76.02063828 -122 61 C-123.37285156 61.03480469 -123.37285156 61.03480469 -124.7734375 61.0703125 C-126.55621094 61.09738281 -126.55621094 61.09738281 -128.375 61.125 C-129.55835938 61.14820313 -130.74171875 61.17140625 -131.9609375 61.1953125 C-135 61 -135 61 -137 59 C-137.24723816 56.71617126 -137.24723816 56.71617126 -137.24291992 53.83178711 C-137.24599655 52.75404526 -137.24907318 51.67630341 -137.25224304 50.56590271 C-137.24505753 49.39817825 -137.23787201 48.2304538 -137.23046875 47.02734375 C-137.23001053 45.83395889 -137.22955231 44.64057404 -137.2290802 43.411026 C-137.22605506 40.88492846 -137.218161 38.35883283 -137.20581055 35.83276367 C-137.18756013 31.95029142 -137.18530076 28.06805752 -137.18554688 24.18554688 C-137.1806317 21.73697709 -137.17480338 19.28840893 -137.16796875 16.83984375 C-137.16685593 15.67009506 -137.1657431 14.50034637 -137.16459656 13.29515076 C-137.15502678 11.68326622 -137.15502678 11.68326622 -137.14526367 10.03881836 C-137.14145187 9.08776718 -137.13764008 8.136716 -137.13371277 7.15684509 C-137 5 -137 5 -136 4 C-134.28598845 3.89811449 -132.56776969 3.86646595 -130.85073853 3.86196899 C-129.17655602 3.85378899 -129.17655602 3.85378899 -127.46855164 3.84544373 C-126.23321182 3.8444014 -124.99787201 3.84335907 -123.72509766 3.84228516 C-121.741018 3.8344862 -119.75693836 3.82668319 -117.77285933 3.81872725 C-115.63354356 3.81099934 -113.4942321 3.80562484 -111.35490799 3.80076981 C-106.901309 3.79011264 -102.4477866 3.76987417 -97.99423218 3.74765015 C-85.32789617 3.6856484 -72.66156419 3.63169385 -59.99511719 3.59863281 C-53.00433033 3.58030552 -46.0136712 3.55139323 -39.02297819 3.5106281 C-35.32118039 3.4895253 -31.61954378 3.47409626 -27.91768265 3.47182083 C-23.78950598 3.46928047 -19.66177827 3.44384924 -15.53369141 3.41650391 C-14.30240005 3.41951004 -13.0711087 3.42251617 -11.80250549 3.4256134 C-10.68074417 3.41452042 -9.55898285 3.40342743 -8.40322876 3.39199829 C-6.93814345 3.38703307 -6.93814345 3.38703307 -5.44346046 3.38196754 C-2.55304408 2.93013079 -1.94838518 2.06477605 0 0 Z " fill="#100C00" transform="translate(350,160)"/>
<path d="M0 0 C1.8125 1.125 1.8125 1.125 3 3 C3.4375 6 3.4375 6 3 9 C1.3125 10.9375 1.3125 10.9375 -1 12 C-4.37036311 11.75925978 -5.58798021 11.41201979 -8 9 C-10.89031484 8.78218505 -13.68760816 8.68855916 -16.58056641 8.68115234 C-17.46843338 8.67110672 -18.35630035 8.6610611 -19.27107239 8.65071106 C-22.21456232 8.61974633 -25.15796077 8.60280714 -28.1015625 8.5859375 C-30.13895462 8.56723653 -32.1763389 8.54766394 -34.2137146 8.5272522 C-39.58292027 8.4758118 -44.95215108 8.43624994 -50.32147217 8.39910889 C-55.797712 8.35914372 -61.27384616 8.30801732 -66.75 8.2578125 C-77.49993335 8.16091223 -88.24990987 8.07758382 -99 8 C-99 13.61 -99 19.22 -99 25 C-80.53721019 24.93888977 -62.07456734 24.86205463 -43.61193371 24.76428509 C-35.03972285 24.71928808 -26.4675539 24.67988252 -17.89526367 24.65356445 C-10.4250785 24.63061589 -2.95502552 24.59725331 4.51505488 24.55129844 C8.47171959 24.52732359 12.42825304 24.50862285 16.38498878 24.50238609 C20.10736993 24.49635436 23.82941504 24.47642459 27.55167198 24.44572449 C29.57281974 24.43270447 31.59404588 24.43451941 33.61523438 24.4367218 C34.81416824 24.42418365 36.01310211 24.41164551 37.24836731 24.39872742 C38.29275876 24.39411845 39.33715021 24.38950949 40.41318989 24.38476086 C43.02012118 24.20268495 43.02012118 24.20268495 44.81650829 22.66648579 C46.86130287 19.78719135 47 16.45864119 47 13 C46.236875 13.061875 45.47375 13.12375 44.6875 13.1875 C42 13 42 13 40.125 11.9375 C38.30151469 8.79705307 39.1341716 6.4014687 40 3 C43 1 43 1 45.5 1.1875 C48.34152761 2.11099647 49.23732289 2.60884749 51 5 C52.17584849 10.99893959 53.35030016 18.61858636 50.4375 24.25 C47.14374892 27.96602687 43.97731851 29.75357233 39.01560497 30.3719368 C37.96052903 30.37047024 36.90545309 30.36900368 35.81840515 30.36749268 C33.99074364 30.37584641 33.99074364 30.37584641 32.12615967 30.3843689 C30.78942674 30.37534815 29.45269579 30.3660304 28.1159668 30.35644531 C26.69800185 30.35723678 25.28003712 30.35933586 23.86207581 30.36264038 C20.02353918 30.36776105 16.185272 30.35426841 12.34677863 30.33711338 C8.33005423 30.3220548 4.31333299 30.32325097 0.29658508 30.32244873 C-6.44270417 30.31876045 -13.1818913 30.30381084 -19.92114258 30.28125 C-28.58175333 30.25231684 -37.24228215 30.2420207 -45.90293598 30.2375679 C-53.3427143 30.2335945 -60.7824747 30.22109643 -68.22224021 30.20722103 C-70.61797593 30.20311696 -73.01371102 30.20019406 -75.40944862 30.19742584 C-79.16460561 30.19254578 -82.91971247 30.18236444 -86.67484474 30.16798782 C-88.0563868 30.16345236 -89.43793561 30.16062323 -90.81948471 30.15958023 C-92.69744096 30.15784371 -94.57538742 30.14934575 -96.45332336 30.14044189 C-98.03310958 30.1359799 -98.03310958 30.1359799 -99.64481068 30.13142776 C-102 30 -102 30 -103 29 C-103 20.75 -103 12.5 -103 4 C-71.65 4 -40.3 4 -8 4 C-7.67 3.01 -7.34 2.02 -7 1 C-4.45132831 -0.27433584 -2.82594567 -0.27570202 0 0 Z " fill="#1D1600" transform="translate(334,176)"/>
<path d="M0 0 C3.0625 0.3125 3.0625 0.3125 4.9375 1.5 C6.49573149 4.01048407 6.55881357 5.40552053 6.0625 8.3125 C4.4375 10.6875 4.4375 10.6875 2.0625 12.3125 C-1.1875 12.0625 -1.1875 12.0625 -3.9375 11.3125 C-4.2675 10.3225 -4.5975 9.3325 -4.9375 8.3125 C-16.46498587 8.35067397 -27.99214991 8.41020532 -39.51938248 8.49640274 C-44.87295949 8.53577705 -50.22637448 8.56801466 -55.58007812 8.58349609 C-60.7544646 8.59872901 -65.92840535 8.63329155 -71.10259247 8.68080902 C-73.06872414 8.69555467 -75.03491948 8.70353707 -77.00110626 8.70438385 C-95.95788265 8.7207469 -110.32940805 12.39828662 -124.546875 25.69921875 C-134.61379094 36.70373961 -139.71618558 49.7444574 -139.5625 64.5625 C-139.55557129 65.65498047 -139.54864258 66.74746094 -139.54150391 67.87304688 C-139.1949924 80.8069237 -134.84114378 93.72205422 -125.26171875 102.921875 C-123.9375 104.3125 -123.9375 104.3125 -123.9375 106.3125 C-123.37417969 106.57289063 -122.81085938 106.83328125 -122.23046875 107.1015625 C-119.71216426 108.43150184 -117.54144938 109.99750996 -115.25 111.6875 C-103.7050622 119.81797596 -92.4441944 121.66790521 -78.5 121.625 C-76.88834961 121.64916992 -76.88834961 121.64916992 -75.24414062 121.67382812 C-74.21611328 121.67447266 -73.18808594 121.67511719 -72.12890625 121.67578125 C-71.20279541 121.67876221 -70.27668457 121.68174316 -69.32250977 121.68481445 C-66.474364 121.24020167 -65.86791831 120.34134369 -63.9375 118.3125 C-60.375 118.4375 -60.375 118.4375 -56.9375 119.3125 C-54.9375 122.3125 -54.9375 122.3125 -55.125 125.375 C-55.9375 128.3125 -55.9375 128.3125 -58.9375 130.3125 C-61.4375 130.625 -61.4375 130.625 -63.9375 130.3125 C-64.37392822 129.81943359 -64.81035645 129.32636719 -65.26000977 128.81835938 C-67.59627796 126.72112429 -69.17176194 126.92929893 -72.27734375 126.90625 C-73.87352539 126.87337891 -73.87352539 126.87337891 -75.50195312 126.83984375 C-76.61505859 126.83082031 -77.72816406 126.82179688 -78.875 126.8125 C-97.75527377 126.65450608 -113.81179121 121.64565377 -127.31640625 108.125 C-141.84099923 92.53974374 -144.79341144 75.59393463 -144.11230469 54.98876953 C-143.27720226 42.20330475 -135.17195811 28.95060367 -125.9375 20.3125 C-108.95948286 6.15966797 -92.43077706 2.87225424 -71.0234375 2.87109375 C-69.11722814 2.8593034 -67.21102795 2.84593515 -65.30484009 2.83106995 C-60.32449013 2.79512484 -55.34422167 2.77474487 -50.36376953 2.75952148 C-42.35827856 2.73454036 -34.3529671 2.6951659 -26.34764481 2.63762093 C-23.55450475 2.62127555 -20.76153528 2.61751488 -17.96835327 2.61460876 C-16.26844989 2.60483989 -14.56854925 2.59457784 -12.86865234 2.58374023 C-12.09053192 2.58629318 -11.3124115 2.58884613 -10.51071167 2.59147644 C-5.95592751 2.54761326 -4.09597138 0.43574164 0 0 Z " fill="#161000" transform="translate(212.9375,118.6875)"/>
<path d="M0 0 C1.07507813 -0.00128906 2.15015625 -0.00257813 3.2578125 -0.00390625 C4.38960937 -0.00003906 5.52140625 0.00382813 6.6875 0.0078125 C7.81929688 0.00394531 8.95109375 0.00007812 10.1171875 -0.00390625 C11.19226563 -0.00261719 12.26734375 -0.00132812 13.375 0 C14.86580078 0.00169189 14.86580078 0.00169189 16.38671875 0.00341797 C18.6875 0.1328125 18.6875 0.1328125 19.6875 1.1328125 C19.78881593 2.61646337 19.82101619 4.10489591 19.82553101 5.59199524 C19.83098434 6.55521698 19.83643768 7.51843872 19.84205627 8.510849 C19.8430986 9.57630447 19.84414093 10.64175995 19.84521484 11.73950195 C19.85283592 13.41257416 19.85283592 13.41257416 19.86061096 15.1194458 C19.87134194 17.55089332 19.87995133 19.98235089 19.88673019 22.41381264 C19.89847574 26.25860969 19.91791725 30.10329219 19.93984985 33.94804382 C20.00161236 44.88288557 20.05577799 55.81771658 20.08886719 66.75268555 C20.10916889 73.43234271 20.14505051 80.11176549 20.18962479 86.79131126 C20.20381838 89.34182494 20.21251475 91.8923752 20.21567917 94.44292641 C20.2205703 98.00815169 20.24368329 101.57282559 20.27099609 105.13793945 C20.26648689 106.72701363 20.26648689 106.72701363 20.2618866 108.34819031 C20.27297958 109.31987152 20.28407257 110.29155273 20.29550171 111.29267883 C20.29881186 112.13574239 20.302122 112.97880594 20.30553246 113.84741688 C20.7701626 116.62740097 21.96262047 117.94963754 23.6875 120.1328125 C23.54927181 122.96649043 23.01305369 124.61878035 21.5 127.0078125 C19.6875 128.1328125 19.6875 128.1328125 16.625 127.9453125 C13.6875 127.1328125 13.6875 127.1328125 11.6875 125.1328125 C11.375 122.1953125 11.375 122.1953125 11.6875 119.1328125 C12.18072156 118.66978572 12.67394312 118.20675894 13.18211079 117.72970104 C15.18501619 115.60505669 15.07005796 114.40796173 15.08622742 111.52009583 C15.09876556 110.57358658 15.11130371 109.62707733 15.1242218 108.65188599 C15.12278671 107.6153891 15.12135162 106.57889221 15.11987305 105.51098633 C15.1300647 104.41814835 15.14025635 103.32531036 15.15075684 102.19935608 C15.18100241 98.57946727 15.19017063 94.95984257 15.19921875 91.33984375 C15.21605682 88.83305473 15.23420586 86.3262742 15.25361633 83.81950378 C15.29634903 77.8909951 15.32583792 71.96251381 15.34893972 66.03390473 C15.3786301 58.62212094 15.42883096 51.21050019 15.47851562 43.79882812 C15.5646632 30.57688486 15.63195756 17.35491725 15.6875 4.1328125 C9.7475 4.1328125 3.8075 4.1328125 -2.3125 4.1328125 C-2.29764604 22.82186982 -2.25647603 41.51064462 -2.18040943 60.1995573 C-2.14575329 68.87712605 -2.1204031 77.55453585 -2.11694336 86.23217773 C-2.11390432 93.79545745 -2.09342216 101.35845411 -2.05197543 108.92162448 C-2.03063798 112.92651447 -2.01804845 116.93100198 -2.02634621 120.93594933 C-2.03388193 124.70611006 -2.0180845 128.47545502 -1.98443985 132.24546623 C-1.97620059 133.6285283 -1.97646386 135.0116714 -1.98590279 136.3947258 C-2.40264815 144.5173751 -2.40264815 144.5173751 1.02168274 151.47492981 C4.17478558 153.4358574 6.03800407 153.55717249 9.6875 153.1328125 C9.625625 152.3696875 9.56375 151.6065625 9.5 150.8203125 C9.6875 148.1328125 9.6875 148.1328125 10.8125 146.3203125 C13.55905972 144.58082468 15.50596974 144.73512122 18.6875 145.1328125 C20.625 146.1953125 20.625 146.1953125 21.6875 148.1328125 C21.5625 151.6953125 21.5625 151.6953125 20.6875 155.1328125 C17.05220903 157.55633982 14.7088475 157.6563036 10.375 158.0078125 C9.07949219 158.12898437 7.78398437 158.25015625 6.44921875 158.375 C1.9245537 158.08369239 0.07259937 157.1124815 -3.3125 154.1328125 C-5.85080465 149.88417829 -6.6866981 146.76250504 -6.67999268 141.83732605 C-6.68556183 140.59364258 -6.69113098 139.34995911 -6.6968689 138.06858826 C-6.68784807 136.7035198 -6.67853033 135.33845328 -6.66894531 133.97338867 C-6.66973675 132.52586748 -6.67183574 131.0783465 -6.67514038 129.63082886 C-6.68026177 125.71171846 -6.66676689 121.79287189 -6.64961338 117.87380385 C-6.63455649 113.77299766 -6.63575101 109.67219457 -6.63494873 105.57136536 C-6.63126024 98.69084172 -6.61630965 91.81041809 -6.59375 84.92993164 C-6.56481805 76.08771867 -6.55452085 67.24558596 -6.5500679 58.4033308 C-6.54609451 50.8078501 -6.53359632 43.21238696 -6.51972103 35.6169188 C-6.51561686 33.17093015 -6.51269401 30.72494213 -6.50992584 28.27895164 C-6.50504586 24.44500069 -6.49486466 20.61109883 -6.48048782 16.77717209 C-6.47595223 15.36660391 -6.4731232 13.95602911 -6.47208023 12.54545403 C-6.4703438 10.62808644 -6.46184599 8.71072844 -6.45294189 6.79338074 C-6.44996723 5.71806689 -6.44699257 4.64275305 -6.44392776 3.53485394 C-6.20066199 -0.91119644 -3.91234524 0.00444008 0 0 Z " fill="#0D0A00" transform="translate(248.3125,215.8671875)"/>
<path d="M0 0 C1.9375 1.0625 1.9375 1.0625 3 3 C2.8125 6.625 2.8125 6.625 2 10 C1.34 10.33 0.68 10.66 0 11 C-0.00142502 11.85618423 -0.00285004 12.71236847 -0.00431824 13.59449768 C-0.02226924 21.72811901 -0.06423672 29.86120489 -0.13209057 37.99456882 C-0.16614396 42.17442836 -0.19143638 46.35393083 -0.19555664 50.53393555 C-0.19988672 54.58028148 -0.2287311 58.62582488 -0.27343178 62.67191887 C-0.28625843 64.20294427 -0.29076818 65.73406645 -0.28615379 67.26513863 C-0.24514605 85.03038246 -5.2218749 101.12917977 -17.75 114.3125 C-32.09103986 127.80994928 -48.2363093 132.6525338 -67.484375 132.3359375 C-83.89418834 131.65077966 -97.44896273 123.57286343 -108.67578125 111.83984375 C-115.01400372 104.09549461 -122 93.23631202 -122 83 C-122.639375 82.79375 -123.27875 82.5875 -123.9375 82.375 C-126 81 -126 81 -127 78.125 C-127 75 -127 75 -125.4375 72.5625 C-123 71 -123 71 -119.875 71.0625 C-117 72 -117 72 -115 75 C-114.75 77.5625 -114.75 77.5625 -115 80 C-115.99 80.99 -115.99 80.99 -117 82 C-115.60752838 93.93547105 -109.01206929 106.09080632 -100 114 C-96.4651421 116.5942963 -92.82022146 118.85217417 -89 121 C-88.27425781 121.4125 -87.54851562 121.825 -86.80078125 122.25 C-74.55333618 128.79480365 -58.0855451 129.18115945 -44.875 125.375 C-28.93277281 119.51024285 -18.33927738 110.37583645 -10.609375 95.28515625 C-6.09279452 84.6172628 -5.68661867 73.89990001 -5.69921875 62.47265625 C-5.69532411 60.99197776 -5.69098788 59.51130037 -5.68623352 58.03062439 C-5.67882138 54.94868315 -5.67902903 51.86685663 -5.68432617 48.78491211 C-5.6901606 44.83490094 -5.67307108 40.88535264 -5.6499815 36.93541813 C-5.63527265 33.88739785 -5.63436774 30.83949044 -5.63749123 27.79144096 C-5.63697809 26.33417266 -5.63174178 24.87689803 -5.62167931 23.41966438 C-5.60936843 21.39057108 -5.61802934 19.36138307 -5.62768555 17.33227539 C-5.62705612 16.17885147 -5.6264267 15.02542755 -5.6257782 13.83705139 C-6.04463793 10.66159083 -6.62597936 9.99471823 -9 8 C-9.42822025 5.14519831 -9.40659584 3.65507108 -7.875 1.1875 C-5.12844028 -0.55198782 -3.18153026 -0.39769128 0 0 Z " fill="#0F0B00" transform="translate(312,285)"/>
<path d="M0 0 C3 0.4375 3 0.4375 4.9375 2.0625 C6.37504343 5.27583238 6.01373739 7.10664856 5 10.4375 C2 12.4375 2 12.4375 -1.1875 12.0625 C-2.115625 11.85625 -3.04375 11.65 -4 11.4375 C-4.495 9.9525 -4.495 9.9525 -5 8.4375 C-15.23 8.4375 -25.46 8.4375 -36 8.4375 C-35.98428955 12.2588855 -35.98428955 12.2588855 -35.96826172 16.1574707 C-35.93501205 24.60715969 -35.91298657 33.05685169 -35.89637566 41.50658894 C-35.88597141 46.6259287 -35.871874 51.745201 -35.84912109 56.86450195 C-35.82727238 61.81174056 -35.81540615 66.75891458 -35.81024551 71.70619774 C-35.80657125 73.58668216 -35.79939675 75.46716334 -35.78853989 77.34762001 C-35.68917994 95.28254038 -36.87753525 110.77922832 -49.92578125 124.58984375 C-56.86581858 130.77183558 -63.72428698 135.20073826 -73 136.4375 C-73.19335938 137.38689453 -73.19335938 137.38689453 -73.390625 138.35546875 C-74 140.4375 -74 140.4375 -75.75 141.75 C-78.59393164 142.61897911 -80.19847309 142.3959171 -83 141.4375 C-85.15502531 138.20496204 -85.46856135 137.18599077 -85 133.4375 C-83.875 131.625 -83.875 131.625 -82 130.4375 C-78.95625944 130.17282691 -76.60027226 130.24281711 -73.6875 131.1875 C-67.21045793 131.79001554 -60.80603129 127.07380569 -55.9140625 123.1953125 C-46.95727407 114.96969047 -41.85790292 104.25933114 -40.80276108 92.17938042 C-40.71781263 89.83599392 -40.68741209 87.49896406 -40.68115234 85.15405273 C-40.66608391 83.83534935 -40.66608391 83.83534935 -40.65071106 82.49000549 C-40.62010087 79.61704088 -40.60290616 76.74416847 -40.5859375 73.87109375 C-40.56720798 71.8661267 -40.54763326 69.86116738 -40.5272522 67.85621643 C-40.47611342 62.60383685 -40.43639039 57.35143177 -40.39910889 52.09893799 C-40.35895432 46.7293069 -40.30791443 41.35978023 -40.2578125 35.99023438 C-40.16126956 25.4727298 -40.07679607 14.95516601 -40 4.4375 C-38.98574951 4.42291748 -37.97149902 4.40833496 -36.92651367 4.39331055 C-33.16345971 4.33533747 -29.40100479 4.25810541 -25.63842773 4.17504883 C-24.00994591 4.14179464 -22.38134869 4.11376416 -20.75268555 4.09106445 C-18.41144639 4.05752643 -16.07126514 4.00521415 -13.73046875 3.94921875 C-13.00224411 3.94282883 -12.27401947 3.9364389 -11.52372742 3.92985535 C-7.54429973 3.87039635 -7.54429973 3.87039635 -4.2043457 1.93286133 C-3 0.4375 -3 0.4375 0 0 Z " fill="#0A0800" transform="translate(335,266.5625)"/>
<path d="M0 0 C1.875 1.125 1.875 1.125 3 3 C3.26141056 6.00622141 3.19311441 8.37774244 2.296875 11.265625 C1.88688393 15.04185855 3.28364395 17.62233444 5 20.875 C5.32468262 21.49705322 5.64936523 22.11910645 5.98388672 22.76000977 C11.7686683 33.43734391 20.93213995 39.58900401 32.57666016 43.06884766 C37.43051025 44.23738192 42.17877466 44.33220804 47.15234375 44.37890625 C48.56345177 44.40439796 48.56345177 44.40439796 50.00306702 44.43040466 C52.98114482 44.48316043 55.95921028 44.52370199 58.9375 44.5625 C61.94071853 44.60642144 64.94382995 44.65301266 67.94691467 44.70530701 C69.80981828 44.73729357 71.6728177 44.76417446 73.53587341 44.78553772 C79.88816267 44.88816267 79.88816267 44.88816267 81 46 C81.12322082 48.92029519 81.18614429 51.8205902 81.2109375 54.7421875 C81.23900595 56.54818615 81.26767041 58.35417562 81.296875 60.16015625 C81.33816793 63.01969144 81.37503734 65.87905518 81.40136719 68.73876953 C81.42892499 71.49027333 81.47479794 74.24098658 81.5234375 76.9921875 C81.52669037 77.84851776 81.52994324 78.70484802 81.53329468 79.58712769 C81.54986115 80.38450348 81.56642761 81.18187927 81.58349609 82.00341797 C81.59158295 82.70433563 81.5996698 83.4052533 81.60800171 84.12741089 C82.1111296 86.53086985 83.2407349 87.34758084 85 89 C85.42317323 91.82115488 85.38718434 93.33950907 83.9375 95.8125 C80.94449731 97.646921 78.42183337 97.31107576 75 97 C73 95 73 95 72.875 91.375 C72.91625 90.26125 72.9575 89.1475 73 88 C74.32 87.34 75.64 86.68 77 86 C77 73.79 77 61.58 77 49 C74.17953125 49.04640625 71.3590625 49.0928125 68.453125 49.140625 C65.6827982 49.17193341 62.91249206 49.1961567 60.14208984 49.21972656 C58.23542271 49.23968492 56.32881552 49.2668616 54.42236328 49.30175781 C38.93635937 49.57785856 27.05440357 48.02891676 14 39 C13.36320312 38.56042969 12.72640625 38.12085938 12.0703125 37.66796875 C4.37907102 31.73716698 0.22096065 22.66834123 -3.8671875 14.0859375 C-4.98038164 11.80075577 -4.98038164 11.80075577 -7.3125 9.6875 C-9 8 -9 8 -9.4375 5.4375 C-9 3 -9 3 -7.875 1.1875 C-5.12844028 -0.55198782 -3.18153026 -0.39769128 0 0 Z " fill="#0D0A00" transform="translate(86,184)"/>
<path d="M0 0 C19.47 0 38.94 0 59 0 C59 8.25 59 16.5 59 25 C57.2817691 26.7182309 55.01402251 26.12754321 52.66992188 26.12939453 C51.53204224 26.13254669 50.3941626 26.13569885 49.22180176 26.13894653 C47.98329468 26.1369223 46.7447876 26.13489807 45.46875 26.1328125 C44.20736206 26.13376923 42.94597412 26.13472595 41.6463623 26.13571167 C38.97302862 26.13639375 36.29978563 26.13503529 33.62646484 26.13037109 C30.19293309 26.12467381 26.7594795 26.12795301 23.32595062 26.13394356 C20.06104757 26.13841762 16.79615407 26.13528883 13.53125 26.1328125 C12.29274292 26.13483673 11.05423584 26.13686096 9.77819824 26.13894653 C8.6403186 26.13579437 7.50243896 26.13264221 6.33007812 26.12939453 C5.32271606 26.12859894 4.315354 26.12780334 3.27746582 26.12698364 C1 26 1 26 0 25 C0 16.75 0 8.5 0 0 Z M4 4 C4 9.61 4 15.22 4 21 C20.83 21 37.66 21 55 21 C55 15.39 55 9.78 55 4 C38.17 4 21.34 4 4 4 Z " fill="#181100" transform="translate(132,180)"/>
<path d="M0 0 C2.9375 0.8125 2.9375 0.8125 4.9375 3.8125 C5.25 6.3125 5.25 6.3125 4.9375 8.8125 C4.44464508 9.22551361 3.95179016 9.63852722 3.44400024 10.0640564 C1.17947438 12.69226425 1.54445643 14.86270951 1.52099609 18.28759766 C1.51241074 18.93991867 1.50382538 19.59223969 1.49497986 20.264328 C1.46990338 22.41851575 1.46554031 24.57224212 1.4609375 26.7265625 C1.44663077 28.22205009 1.43087434 29.71752446 1.41372681 31.21298218 C1.37185508 35.14824807 1.34686856 39.08343199 1.32623291 43.01885986 C1.29042438 49.32545887 1.22957175 55.63185591 1.16774368 61.93824387 C1.14859582 64.14580989 1.13690786 66.35332184 1.12631226 68.5609436 C1.11610532 69.90602742 1.10574784 71.2511101 1.09521484 72.59619141 C1.08871918 73.77516998 1.08222351 74.95414856 1.07553101 76.16885376 C0.9375 78.8125 0.9375 78.8125 -0.0625 79.8125 C-2.89834752 79.9357065 -5.71359515 79.99863976 -8.55078125 80.0234375 C-10.30664987 80.05151121 -12.06250912 80.08017571 -13.81835938 80.109375 C-16.59659515 80.15062499 -19.37465707 80.18749675 -22.15307617 80.21386719 C-24.82768261 80.24147726 -27.50148454 80.28735589 -30.17578125 80.3359375 C-31.41972404 80.3408168 -31.41972404 80.3408168 -32.688797 80.34579468 C-37.17223869 80.44135205 -39.62412229 80.67909326 -43.0625 83.8125 C-45.89617793 83.67427181 -47.54846785 83.13805369 -49.9375 81.625 C-51.0625 79.8125 -51.0625 79.8125 -50.875 76.75 C-50.0625 73.8125 -50.0625 73.8125 -48.0625 71.8125 C-45.125 71.5 -45.125 71.5 -42.0625 71.8125 C-41.47795044 72.54883667 -41.47795044 72.54883667 -40.8815918 73.30004883 C-37.95217503 75.73565974 -34.54297658 75.29401911 -30.89453125 75.32421875 C-29.70231209 75.35114555 -29.70231209 75.35114555 -28.48600769 75.37861633 C-25.94905899 75.4327697 -23.41229893 75.46663028 -20.875 75.5 C-19.15427059 75.53316874 -17.4335661 75.56765799 -15.71289062 75.60351562 C-11.49622978 75.68849873 -7.27962536 75.75528542 -3.0625 75.8125 C-3.12368293 67.5195082 -3.20076785 59.2268825 -3.29821491 50.93424511 C-3.34296171 47.08370744 -3.38220798 43.23327662 -3.40893555 39.38256836 C-3.43492607 35.66708435 -3.47529735 31.9520106 -3.52568626 28.23678017 C-3.54238396 26.81864839 -3.55388017 25.40044561 -3.56011391 23.98222923 C-3.56972254 21.9973976 -3.59946284 20.01269418 -3.63012695 18.02807617 C-3.64678154 16.33263924 -3.64678154 16.33263924 -3.66377258 14.60295105 C-4.11591937 11.43865026 -4.7892447 10.88253284 -7.0625 8.8125 C-6.9375 5.25 -6.9375 5.25 -6.0625 1.8125 C-3.0625 -0.1875 -3.0625 -0.1875 0 0 Z " fill="#090700" transform="translate(204.0625,266.1875)"/>
<path d="M0 0 C2.1519437 3.22791555 2.20086443 4.28400809 2 8 C0.02 8.99 0.02 8.99 -2 10 C-1.99777939 10.89980087 -1.99555878 11.79960175 -1.99327087 12.72666931 C-1.97327056 21.18813967 -1.9580272 29.64960214 -1.94818783 38.11109066 C-1.94295935 42.46168459 -1.93586235 46.81225907 -1.92456055 51.1628418 C-1.91373041 55.35790258 -1.9077229 59.55294459 -1.90512276 63.74801826 C-1.90326874 65.35206968 -1.89964856 66.95612003 -1.89426994 68.5601635 C-1.88705781 70.79916515 -1.88600913 73.0380883 -1.88647461 75.27709961 C-1.884254 76.55395126 -1.88203339 77.83080292 -1.87974548 79.14634705 C-2 82 -2 82 -3 83 C-4.39067183 83.13220587 -5.78731209 83.20315126 -7.18359375 83.24609375 C-8.02857422 83.27896484 -8.87355469 83.31183594 -9.74414062 83.34570312 C-11.53568281 83.40676366 -13.3273569 83.46407257 -15.11914062 83.51757812 C-15.96541016 83.55173828 -16.81167969 83.58589844 -17.68359375 83.62109375 C-18.46275146 83.6461499 -19.24190918 83.67120605 -20.04467773 83.69702148 C-22.23265839 83.83899615 -22.23265839 83.83899615 -24 86 C-27.4375 86.375 -27.4375 86.375 -31 86 C-33 84.3125 -33 84.3125 -34 82 C-33.75925978 78.62963689 -33.41201979 77.41201979 -31 75 C-27.375 74.875 -27.375 74.875 -24 75 C-23.34 76.32 -22.68 77.64 -22 79 C-16.72 79 -11.44 79 -6 79 C-6.06287889 70.18549165 -6.13825427 61.37133456 -6.23571491 52.5571394 C-6.28046719 48.46446382 -6.31971232 44.3718889 -6.34643555 40.27905273 C-6.37242049 36.33016285 -6.412788 32.38165934 -6.46318626 28.43300819 C-6.47988771 26.92555861 -6.49138156 25.41804214 -6.49761391 23.91051292 C-6.5072199 21.80084989 -6.53523419 19.69218261 -6.56762695 17.58276367 C-6.57873001 16.38141281 -6.58983307 15.18006195 -6.60127258 13.94230652 C-7.04287 10.68365184 -7.58947952 10.05558757 -10 8 C-10.39310741 4.85514075 -10.47555213 2.86718329 -8.9375 0.0625 C-5.78433176 -1.66665678 -3.37491745 -0.8590699 0 0 Z " fill="#0E0A00" transform="translate(195,244)"/>
</svg>
